<svg width="20" height="20" viewBox="0 0 20 20" fill="none" xmlns="http://www.w3.org/2000/svg">
<path d="M0.449743 0.0669689C0.252265 0.147335 0.0499714 0.375032 0.0162558 0.553621C0.0018062 0.633986 -0.00301033 4.29503 0.0018062 8.69721L0.0162558 16.6979L0.117403 16.8185C0.170384 16.8854 0.276348 16.9837 0.348596 17.0328C0.478642 17.1265 0.517174 17.1265 5.12177 17.1399L9.76489 17.1489L9.96719 17.4748C10.2514 17.9302 10.5163 18.2338 10.9546 18.6222C11.5663 19.1624 12.1635 19.4973 12.9486 19.7384C15.5544 20.551 18.372 19.4169 19.5521 17.0819C19.658 16.8721 19.8025 16.5015 19.8748 16.2649C19.9904 15.872 20 15.7559 20 15.0058C20 14.2468 19.9904 14.1441 19.87 13.7334C19.6099 12.8494 19.0511 11.9832 18.3239 11.3582C17.4424 10.5947 16.4069 10.1616 15.1787 10.0411L14.6344 9.9875V7.07206C14.6344 5.15671 14.6151 4.1209 14.5862 4.03608C14.5188 3.87088 10.5115 0.147335 10.314 0.0669689C10.0876 -0.0223236 0.671303 -0.0223236 0.449743 0.0669689ZM11.3832 3.00473L13.0931 4.57184V7.38906V10.2063L12.8426 10.2911C10.6271 11.0099 9.1532 13.0235 9.25434 15.1933L9.27842 15.7202H5.40594H1.53346V8.57666V1.43316H5.60342H9.6782L11.3832 3.00473ZM15.5495 11.5368C16.5562 11.7912 17.3172 12.3002 17.8663 13.0771C18.844 14.4611 18.6273 16.3452 17.3557 17.5284C16.5321 18.2874 15.3232 18.6758 14.1816 18.5418C13.3147 18.4392 12.5248 18.0864 11.9179 17.5194C9.74081 15.4969 10.8679 12.0948 13.9119 11.4966C14.2972 11.4207 15.1738 11.443 15.5495 11.5368Z" fill="#586377"/>
<path d="M3.53234 3.63852C3.20963 3.76799 3.02661 4.11177 3.09404 4.44662C3.13739 4.65646 3.37821 4.90202 3.59496 4.96453C3.71055 4.99132 4.25 5.00471 5.10734 4.99578C6.36446 4.98239 6.44634 4.97792 6.57157 4.88863C6.82684 4.7145 6.90391 4.57163 6.90391 4.29036C6.90391 4.00908 6.82684 3.86621 6.57157 3.69209C6.44634 3.6028 6.36927 3.59833 5.05918 3.5894C3.98509 3.58047 3.64312 3.5894 3.53234 3.63852Z" fill="#586377"/>
<path d="M8.1562 3.6385C7.66974 3.83495 7.55414 4.43322 7.93464 4.78593C8.47409 5.29044 9.36033 4.83951 9.22066 4.13408C9.13396 3.7144 8.58969 3.45992 8.1562 3.6385Z" fill="#586377"/>
<path d="M10.4681 3.6385C9.98163 3.83495 9.86603 4.43322 10.2465 4.78593C10.786 5.29044 11.6722 4.83951 11.5325 4.13408C11.4458 3.7144 10.9016 3.45992 10.4681 3.6385Z" fill="#586377"/>
<path d="M3.53234 6.49596C3.20963 6.62544 3.02661 6.96922 3.09404 7.30407C3.13739 7.51391 3.37821 7.75947 3.59496 7.81751C3.71537 7.85322 4.9484 7.86215 7.41927 7.85322C11.0124 7.83983 11.0654 7.83983 11.1954 7.74607C11.4507 7.57195 11.5278 7.42908 11.5278 7.1478C11.5278 6.86653 11.4507 6.72366 11.1954 6.54954C11.0654 6.45578 11.0172 6.45578 7.37111 6.44685C4.37523 6.43792 3.64794 6.44685 3.53234 6.49596Z" fill="#586377"/>
<path d="M3.53234 9.35338C3.20963 9.48286 3.02661 9.82664 3.09404 10.1615C3.13739 10.3713 3.37821 10.6169 3.59496 10.6749C3.71537 10.7106 4.9484 10.7196 7.41927 10.7106C11.0124 10.6973 11.0654 10.6973 11.1954 10.6035C11.4507 10.4294 11.5278 10.2865 11.5278 10.0052C11.5278 9.72395 11.4507 9.58108 11.1954 9.40696C11.0654 9.3132 11.0172 9.3132 7.37111 9.30427C4.37523 9.29534 3.64794 9.30427 3.53234 9.35338Z" fill="#586377"/>
<path d="M14.3213 12.9253C13.9697 13.0726 13.8638 13.2958 13.8638 13.8673V14.2825L13.3388 14.3004C12.7704 14.3138 12.6596 14.354 12.4477 14.6218C12.308 14.796 12.308 15.2156 12.4477 15.3898C12.6596 15.6577 12.7704 15.6978 13.334 15.7112L13.8541 15.7291L13.8734 16.2113C13.8879 16.7336 13.9312 16.8363 14.2202 17.0328C14.408 17.1623 14.8608 17.1623 15.0486 17.0328C15.3376 16.8363 15.381 16.7336 15.3954 16.2113L15.4147 15.7291L15.9349 15.7112C16.3732 15.7023 16.4791 15.6844 16.5899 15.6041C16.8452 15.43 16.9223 15.2871 16.9223 15.0058C16.9223 14.7245 16.8452 14.5817 16.5899 14.4075C16.4791 14.3272 16.3732 14.3093 15.9349 14.3004L15.4147 14.2825L15.3954 13.8003C15.381 13.278 15.3376 13.1753 15.0583 12.9833C14.8945 12.8717 14.514 12.8404 14.3213 12.9253Z" fill="#586377"/>
</svg>
