<svg width="20" height="20" viewBox="0 0 20 20" fill="none" xmlns="http://www.w3.org/2000/svg">
<path d="M14.7368 20C13.2807 20 12.0395 19.5357 11.0132 18.6071C9.98684 17.6786 9.47368 16.5556 9.47368 15.2381C9.47368 13.9206 9.98684 12.7976 11.0132 11.869C12.0395 10.9405 13.2807 10.4762 14.7368 10.4762C16.193 10.4762 17.4342 10.9405 18.4605 11.869C19.4868 12.7976 20 13.9206 20 15.2381C20 16.5556 19.4868 17.6786 18.4605 18.6071C17.4342 19.5357 16.193 20 14.7368 20ZM16.5 17.5L17.2368 16.8333L15.2632 15.0476V12.381H14.2105V15.4286L16.5 17.5ZM2.10526 19.0476C1.52632 19.0476 1.0307 18.8611 0.618421 18.4881C0.20614 18.1151 0 17.6667 0 17.1429V3.80952C0 3.28571 0.20614 2.8373 0.618421 2.46429C1.0307 2.09127 1.52632 1.90476 2.10526 1.90476H6.5C6.69298 1.34921 7.07018 0.892857 7.63158 0.535714C8.19298 0.178571 8.80702 0 9.47368 0C10.1754 0 10.8026 0.178571 11.3553 0.535714C11.9079 0.892857 12.2807 1.34921 12.4737 1.90476H16.8421C17.4211 1.90476 17.9167 2.09127 18.3289 2.46429C18.7412 2.8373 18.9474 3.28571 18.9474 3.80952V9.7619C18.6316 9.55556 18.2982 9.38095 17.9474 9.2381C17.5965 9.09524 17.2281 8.96825 16.8421 8.85714V3.80952H14.7368V6.66667H4.21053V3.80952H2.10526V17.1429H7.68421C7.80702 17.4921 7.94737 17.8254 8.10526 18.1429C8.26316 18.4603 8.45614 18.7619 8.68421 19.0476H2.10526ZM9.47368 3.80952C9.77193 3.80952 10.0219 3.71825 10.2237 3.53571C10.4254 3.35317 10.5263 3.12698 10.5263 2.85714C10.5263 2.5873 10.4254 2.36111 10.2237 2.17857C10.0219 1.99603 9.77193 1.90476 9.47368 1.90476C9.17544 1.90476 8.92544 1.99603 8.72369 2.17857C8.52193 2.36111 8.42105 2.5873 8.42105 2.85714C8.42105 3.12698 8.52193 3.35317 8.72369 3.53571C8.92544 3.71825 9.17544 3.80952 9.47368 3.80952Z" fill="#586377"/>
</svg>
